<?xml version="1.0" standalone="no"?>
<!DOCTYPE svg PUBLIC "-//W3C//DTD SVG 20010904//EN"
 "http://www.w3.org/TR/2001/REC-SVG-20010904/DTD/svg10.dtd">
<svg version="1.0" xmlns="http://www.w3.org/2000/svg"
 width="600.000000pt" height="600.000000pt" viewBox="0 0 600.000000 600.000000"
 preserveAspectRatio="xMidYMid meet">

<g transform="translate(0.000000,600.000000) scale(0.100000,-0.100000)"
fill="#000000" stroke="none">
<path d="M1983 4360 c-93 -19 -179 -86 -223 -175 l-25 -50 -3 -952 c-2 -934
-2 -952 18 -1005 25 -69 75 -127 134 -159 25 -13 46 -30 46 -36 0 -10 91 -13
425 -13 234 0 425 2 425 4 0 2 -12 29 -26 60 l-25 56 -360 0 c-396 0 -403 1
-467 63 -63 61 -62 38 -62 1008 0 580 4 895 11 927 13 63 65 125 122 146 37
14 98 16 477 14 l435 -3 0 -215 c1 -202 2 -218 23 -260 35 -72 78 -116 140
-147 56 -27 61 -28 255 -31 l197 -4 0 -184 0 -184 55 0 55 0 0 189 0 189 -162
173 c-228 245 -539 572 -557 587 -11 9 -113 12 -440 11 -234 -1 -445 -5 -468
-9z"/>
<path d="M2050 4040 c-27 -27 -26 -71 3 -98 23 -22 29 -22 313 -22 278 0 291
1 312 20 28 26 29 73 2 100 -19 19 -33 20 -315 20 -282 0 -296 -1 -315 -20z"/>
<path d="M2050 3640 c-27 -27 -26 -71 3 -98 23 -22 29 -22 309 -22 273 0 286
1 312 21 32 25 35 70 6 99 -19 19 -33 20 -315 20 -282 0 -296 -1 -315 -20z"/>
<path d="M2056 3229 c-32 -25 -35 -70 -6 -99 19 -19 33 -20 544 -20 l523 0 77
35 c82 39 95 60 54 89 -20 14 -93 16 -594 16 -563 0 -572 0 -598 -21z"/>
<path d="M3385 3084 c-38 -8 -116 -37 -173 -65 -87 -42 -115 -62 -185 -132
-144 -144 -206 -285 -215 -489 -7 -187 39 -335 151 -484 175 -231 501 -334
787 -248 178 53 359 203 438 364 56 113 82 220 82 334 0 328 -208 608 -525
706 -94 29 -263 36 -360 14z m300 -119 c110 -28 203 -81 285 -164 127 -128
183 -263 182 -441 -1 -392 -379 -687 -756 -590 -219 56 -387 218 -452 435 -27
89 -25 239 5 335 60 200 227 364 426 421 77 22 230 24 310 4z"/>
<path d="M3440 2595 l0 -124 -127 -3 -128 -3 0 -105 0 -105 125 -2 125 -1 3
-126 3 -126 104 0 104 0 3 126 3 126 125 1 125 2 3 108 3 107 -131 0 -130 0 0
125 0 125 -105 0 -105 0 0 -125z"/>
<path d="M2046 2828 c-21 -29 -20 -61 2 -87 17 -21 20 -21 365 -19 l348 3 35
63 35 62 -385 0 -385 0 -15 -22z"/>
<path d="M2047 2422 c-21 -23 -22 -61 -1 -90 15 -22 16 -22 328 -22 l312 0 1
65 0 65 -312 0 c-289 0 -313 -1 -328 -18z"/>
</g>
  <text x="175" y="230" font-family="Arial" font-size="0" fill="white" text-anchor="middle">
    AddNotesImg
  </text>
</svg>
